<svg xmlns="http://www.w3.org/2000/svg" viewBox="0 0 32 32"><path fill="#c792ea" d="M5 4h11c2 0 4 1 4 4v20c0-2-2-3-4-3H5z"/><path fill="#d2a7ee" d="M27 4H16c-2 0-4 1-4 4v20c0-2 2-3 4-3h11z"/><g fill="#fff"><circle cx="9"  cy="14" r="1.2"/><rect x="11" y="13.4" width="6" height="1.3"/><circle cx="9"  cy="19" r="1.2"/><rect x="11" y="18.4" width="5" height="1.3"/><circle cx="21" cy="14" r="1.2"/><rect x="23" y="13.4" width="4" height="1.3"/><circle cx="21" cy="19" r="1.2"/><rect x="23" y="18.4" width="3" height="1.3"/></g></svg>