<svg xmlns="http://www.w3.org/2000/svg" viewBox="0 0 32 32"><g fill="#82aaff"><rect x="6"  y="13" width="3.6" height="3.6" rx="0.5"/><rect x="10" y="13" width="3.6" height="3.6" rx="0.5"/><rect x="14" y="13" width="3.6" height="3.6" rx="0.5"/><rect x="18" y="13" width="3.6" height="3.6" rx="0.5"/><rect x="10" y="9"  width="3.6" height="3.6" rx="0.5"/><rect x="14" y="9"  width="3.6" height="3.6" rx="0.5"/><rect x="14" y="5"  width="3.6" height="3.6" rx="0.5"/></g><path fill="#89ddff" d="M26 17h-2c-.5 2.5-2.5 5-7 5H6c-1 4 1 6 5 6h11c4 0 7-2 9-5h3v-3c0-2-3-3-8-3z"/></svg>