<svg xmlns="http://www.w3.org/2000/svg" viewBox="0 0 32 32"><path fill="#c792ea" d="M3 8a2 2 0 0 1 2-2h7l2.5 2.5H27a2 2 0 0 1 2 2v14a2 2 0 0 1-2 2H5a2 2 0 0 1-2-2V8z"/><path fill="#d7b2f0" d="M3 14h26v10a2 2 0 0 1-2 2H5a2 2 0 0 1-2-2V14z"/><g fill="#fff"><path d="M16 13a5 5 0 0 0-1.6 9.7c.3 0 .4-.1.4-.3v-1c-1.3.3-1.7-.6-1.7-.6-.2-.5-.5-.7-.5-.7-.4-.3 0-.3 0-.3.5 0 .7.5.7.5.4.7 1.1.5 1.4.4 0-.3.2-.5.3-.7-1 0-2.1-.5-2.1-2.2 0-.5.2-.9.5-1.2 0-.1-.2-.6 0-1.2 0 0 .4-.1 1.3.5a4.5 4.5 0 0 1 2.4 0c.9-.6 1.3-.5 1.3-.5.2.6 0 1.1 0 1.2.3.3.5.7.5 1.2 0 1.7-1.1 2.1-2.1 2.2.2.1.3.4.3.9v1.3c0 .2.1.4.4.3A5 5 0 0 0 16 13z"/></g></svg>