<svg xmlns="http://www.w3.org/2000/svg" viewBox="0 0 32 32"><path fill="#82aaff" d="M3 8a2 2 0 0 1 2-2h7l2.5 2.5H27a2 2 0 0 1 2 2v14a2 2 0 0 1-2 2H5a2 2 0 0 1-2-2V8z"/><path fill="#a7c3ff" d="M3 14h26v10a2 2 0 0 1-2 2H5a2 2 0 0 1-2-2V14z"/><path fill="#fff" opacity="0.95" stroke="#fff" stroke-width="0.4" d="M13.5 17c-1 0-1.5.5-1.5 1.4v1.2c0 .6-.3.9-.9.9v.8c.6 0 .9.3.9.9v1.2c0 .9.5 1.4 1.5 1.4v-.9c-.5 0-.7-.2-.7-.7v-1.1c0-.6-.2-1-.7-1.2.5-.2.7-.6.7-1.2v-1.1c0-.5.2-.7.7-.7V17z M18.5 17v.9c.5 0 .7.2.7.7v1.1c0 .6.2 1 .7 1.2-.5.2-.7.6-.7 1.2v1.1c0 .5-.2.7-.7.7v.9c1 0 1.5-.5 1.5-1.4v-1.2c0-.6.3-.9.9-.9v-.8c-.6 0-.9-.3-.9-.9v-1.2c0-.9-.5-1.4-1.5-1.4z"/></svg>