<svg xmlns="http://www.w3.org/2000/svg" viewBox="0 0 32 32"><path fill="#f78c6c" d="M7 19h17v3.5c0 2-3 3.5-8.5 3.5s-8.5-1.5-8.5-3.5V19z"/><path fill="#c57056" d="M7 19h17v1.5c0 1.2-3 2-8.5 2s-8.5-.8-8.5-2V19z"/><path fill="none" stroke="#f78c6c" stroke-width="1.6" d="M24 19.5c2 0 3 1 3 2.5s-1 2-3 2.5"/><g fill="#ff5370"><path d="M14 3c0 2.5-2 3-2 5s1.5 3 1.5 5c0 1.5-1 2-1 3"/><path d="M18 5c0 2-1.5 2.5-1.5 4s1 2.5 1 4.5"/></g><g fill="none" stroke="#ff5370" stroke-width="1.6" stroke-linecap="round"><path d="M14 3c0 2.5-2 3-2 5s1.5 3 1.5 5c0 1.5-1 2-1 3"/><path d="M18 5c0 2-1.5 2.5-1.5 4s1 2.5 1 4.5"/></g></svg>