<svg xmlns="http://www.w3.org/2000/svg" viewBox="0 0 32 32"><path fill="#82aaff" d="M15.9 2c-3.1 0-4 1.4-4 3v3.5h4.2v.6H8.7c-2.2 0-3.7 1.4-3.7 4.9 0 3.4 1.4 4.9 3.7 4.9h2v-3c0-1.9 1.5-3.4 3.4-3.4h6.7c1.6 0 3-1.3 3-3V5c0-1.7-1.5-3-3.5-3-1.5 0-3-.3-4.4 0zm-1.6 2.4c.6 0 1.1.5 1.1 1.2s-.5 1.2-1.1 1.2-1.1-.5-1.1-1.2.5-1.2 1.1-1.2z"/><path fill="#ffcb6b" d="M16.1 30c3.1 0 4-1.4 4-3v-3.5h-4.2v-.6h7.4c2.2 0 3.7-1.4 3.7-4.9 0-3.4-1.4-4.9-3.7-4.9h-2v3c0 1.9-1.5 3.4-3.4 3.4h-6.7c-1.6 0-3 1.3-3 3V27c0 1.7 1.5 3 3.5 3 1.5 0 3 .3 4.4 0zm1.6-2.4c-.6 0-1.1-.5-1.1-1.2s.5-1.2 1.1-1.2 1.1.5 1.1 1.2-.5 1.2-1.1 1.2z"/></svg>